<svg width="24" height="24" viewBox="0 0 24 24" fill="none" xmlns="http://www.w3.org/2000/svg">
<rect x="0.5" y="0.5" width="23" height="23" rx="5.5" stroke="#0E1AFB"/>
<path fill-rule="evenodd" clip-rule="evenodd" d="M19.333 12.0229C19.3267 12.207 19.2444 12.3804 19.1058 12.5017L13.7724 17.1684C13.5749 17.3412 13.2944 17.3821 13.0558 17.2728C12.8172 17.1635 12.6649 16.9244 12.6668 16.6619L12.6833 14.3485C10.8139 14.4343 9.457 14.8773 8.42931 15.4559C7.27823 16.104 6.49705 16.946 5.85399 17.7498C5.67713 17.9709 5.37991 18.0562 5.11274 17.9624C4.84558 17.8687 4.66675 17.6165 4.66675 17.3334C4.66675 14.8337 5.56374 12.7351 7.12965 11.2641C8.54998 9.92987 10.4798 9.14967 12.6883 9.01948L12.6883 6.66669C12.6883 6.3968 12.851 6.15354 13.1004 6.05051C13.3499 5.94748 13.6368 6.00501 13.8273 6.19624L19.1391 11.5296C19.2691 11.6601 19.3393 11.8387 19.333 12.0229ZM14.0216 8.28077V9.66669C14.0216 9.8435 13.9513 10.0131 13.8263 10.1381C13.7013 10.2631 13.5317 10.3334 13.3549 10.3334C11.1531 10.3334 9.31974 11.0361 8.04255 12.2359C7.17393 13.0519 6.53964 14.1189 6.22439 15.4031C6.66691 15.0104 7.17707 14.6308 7.77516 14.2941C9.14437 13.5232 10.9315 13 13.3549 13C13.5326 13 13.7029 13.0709 13.828 13.197C13.9532 13.323 14.0228 13.4938 14.0216 13.6715L14.0107 15.1882L17.6925 11.9666L14.0216 8.28077Z" fill="#0E1AFB"/>
</svg>
