<svg width="25" height="25" viewBox="0 0 25 25" fill="none" xmlns="http://www.w3.org/2000/svg">
<g clip-path="url(#clip0_676_7375)">
<path d="M24.147 12.8156C24.147 6.18819 18.7744 0.815613 12.147 0.815613C5.51955 0.815613 0.146973 6.18819 0.146973 12.8156C0.146973 18.8052 4.5352 23.7696 10.272 24.6698V16.2844H7.2251V12.8156H10.272V10.1719C10.272 7.16436 12.0635 5.50311 14.8046 5.50311C16.1174 5.50311 17.4907 5.73749 17.4907 5.73749V8.69061H15.9776C14.4869 8.69061 14.022 9.61562 14.022 10.5646V12.8156H17.3501L16.8181 16.2844H14.022V24.6698C19.7587 23.7696 24.147 18.8052 24.147 12.8156Z" fill="#1877F2"/>
<path d="M16.8181 16.2844L17.3501 12.8156H14.022V10.5646C14.022 9.61562 14.4869 8.69061 15.9776 8.69061H17.4907V5.73749C17.4907 5.73749 16.1174 5.50311 14.8046 5.50311C12.0635 5.50311 10.272 7.16436 10.272 10.1719V12.8156H7.2251V16.2844H10.272V24.6698C10.8829 24.7657 11.5091 24.8156 12.147 24.8156C12.7848 24.8156 13.411 24.7657 14.022 24.6698V16.2844H16.8181Z" fill="white"/>
</g>
<defs>
<clipPath id="clip0_676_7375">
<rect width="24" height="24" fill="white" transform="translate(0.146973 0.815613)"/>
</clipPath>
</defs>
</svg>
