<svg width="25" height="24" viewBox="0 0 25 24" fill="none" xmlns="http://www.w3.org/2000/svg">
<g clip-path="url(#clip0_105_853)">
<path d="M0 0H24.7273V24H0" fill="white"/>
<path d="M3.67041 8.90625V16.9219C3.67041 17.8594 4.15336 18.3281 5.11927 18.3281H7.63064V8.90625" fill="#4285F4"/>
<path d="M17.0967 8.90625V18.3281H19.608C20.574 18.3281 21.0569 17.8594 21.0569 16.9219V8.90625" fill="#34A853"/>
<path d="M16.9033 11.9531V6.98438L18.2556 6C19.4147 5.15625 21.0567 6.09375 21.0567 7.40625V8.90625" fill="#FBBC04"/>
<path d="M7.4375 11.6719V6.70312L12.3636 10.3125L17.0966 6.84375V11.8125L12.3636 15.2812" fill="#EA4335"/>
<path d="M3.67041 8.90625V7.40625C3.67041 6.04688 5.31246 5.15625 6.47155 6L7.63064 6.84375V11.8125" fill="#C5221F"/>
</g>
<defs>
<clipPath id="clip0_105_853">
<rect width="24.7273" height="24" fill="white"/>
</clipPath>
</defs>
</svg>
