<svg width="24" height="24" viewBox="0 0 24 24" fill="none" xmlns="http://www.w3.org/2000/svg">
<path d="M12.0064 0.181824C7.07148 0.181824 5.62821 0.186915 5.34766 0.210187C4.33494 0.294369 3.70476 0.453824 3.01821 0.795642C2.48912 1.05837 2.07185 1.36291 1.66003 1.78982C0.910028 2.56837 0.455482 3.52619 0.290937 4.66473C0.210937 5.21746 0.187664 5.33019 0.182937 8.15346C0.181119 9.09455 0.182937 10.3331 0.182937 11.9944C0.182937 16.9253 0.188392 18.3671 0.212028 18.6471C0.293846 19.6326 0.448392 20.2526 0.775664 20.9307C1.40112 22.2289 2.59566 23.2035 4.00294 23.5671C4.49021 23.6926 5.02839 23.7616 5.7193 23.7944C6.01203 23.8071 8.99566 23.8162 11.9811 23.8162C14.9666 23.8162 17.952 23.8126 18.2375 23.798C19.0375 23.7604 19.502 23.698 20.0157 23.5653C21.432 23.1998 22.6048 22.2398 23.2429 20.9235C23.5638 20.2616 23.7266 19.618 23.8002 18.684C23.8162 18.4804 23.8229 15.2336 23.8229 11.9913C23.8229 8.74837 23.8157 5.50764 23.7997 5.30401C23.7251 4.35492 23.5624 3.71673 23.2311 3.04219C22.9593 2.49001 22.6575 2.07764 22.2193 1.65601C21.4373 0.909096 20.4809 0.454551 19.3413 0.290187C18.7891 0.210369 18.6791 0.186733 15.8537 0.181824H12.0064Z" fill="url(#paint0_radial_105_862)"/>
<path d="M12.0064 0.181824C7.07148 0.181824 5.62821 0.186915 5.34766 0.210187C4.33494 0.294369 3.70476 0.453824 3.01821 0.795642C2.48912 1.05837 2.07185 1.36291 1.66003 1.78982C0.910028 2.56837 0.455482 3.52619 0.290937 4.66473C0.210937 5.21746 0.187664 5.33019 0.182937 8.15346C0.181119 9.09455 0.182937 10.3331 0.182937 11.9944C0.182937 16.9253 0.188392 18.3671 0.212028 18.6471C0.293846 19.6326 0.448392 20.2526 0.775664 20.9307C1.40112 22.2289 2.59566 23.2035 4.00294 23.5671C4.49021 23.6926 5.02839 23.7616 5.7193 23.7944C6.01203 23.8071 8.99566 23.8162 11.9811 23.8162C14.9666 23.8162 17.952 23.8126 18.2375 23.798C19.0375 23.7604 19.502 23.698 20.0157 23.5653C21.432 23.1998 22.6048 22.2398 23.2429 20.9235C23.5638 20.2616 23.7266 19.618 23.8002 18.684C23.8162 18.4804 23.8229 15.2336 23.8229 11.9913C23.8229 8.74837 23.8157 5.50764 23.7997 5.30401C23.7251 4.35492 23.5624 3.71673 23.2311 3.04219C22.9593 2.49001 22.6575 2.07764 22.2193 1.65601C21.4373 0.909096 20.4809 0.454551 19.3413 0.290187C18.7891 0.210369 18.6791 0.186733 15.8537 0.181824H12.0064Z" fill="url(#paint1_radial_105_862)"/>
<path d="M12.0009 3.27272C9.63077 3.27272 9.33331 3.28308 8.4024 3.32545C7.47331 3.36799 6.83913 3.51508 6.28422 3.7309C5.71022 3.95381 5.22331 4.25199 4.73822 4.73727C4.25277 5.22236 3.95459 5.70927 3.73095 6.28308C3.51459 6.83817 3.36731 7.47254 3.32549 8.40127C3.28386 9.33218 3.27295 9.62981 3.27295 12C3.27295 14.3702 3.28349 14.6667 3.32568 15.5976C3.3684 16.5267 3.51549 17.1609 3.73113 17.7158C3.95422 18.2898 4.2524 18.7767 4.73768 19.2618C5.22259 19.7473 5.70949 20.0462 6.28313 20.2691C6.8384 20.4849 7.47277 20.632 8.40168 20.6745C9.33259 20.7169 9.62986 20.7273 11.9999 20.7273C14.3702 20.7273 14.6668 20.7169 15.5977 20.6745C16.5268 20.632 17.1617 20.4849 17.7169 20.2691C18.2908 20.0462 18.7769 19.7473 19.2619 19.2618C19.7473 18.7767 20.0455 18.2898 20.2691 17.716C20.4837 17.1609 20.6309 16.5265 20.6746 15.5978C20.7164 14.6669 20.7273 14.3702 20.7273 12C20.7273 9.62981 20.7164 9.33236 20.6746 8.40145C20.6309 7.47236 20.4837 6.83817 20.2691 6.28327C20.0455 5.70927 19.7473 5.22236 19.2619 4.73727C18.7764 4.25181 18.2909 3.95363 17.7164 3.7309C17.16 3.51508 16.5255 3.36799 15.5964 3.32545C14.6655 3.28308 14.3691 3.27272 11.9982 3.27272H12.0009ZM11.218 4.84545C11.4504 4.84508 11.7097 4.84545 12.0009 4.84545C14.3311 4.84545 14.6073 4.85381 15.5275 4.89563C16.3784 4.93454 16.8402 5.07672 17.1479 5.19617C17.5551 5.35436 17.8455 5.54345 18.1508 5.8489C18.4562 6.15436 18.6453 6.44527 18.8039 6.85254C18.9233 7.15981 19.0657 7.62163 19.1044 8.47254C19.1462 9.39254 19.1553 9.6689 19.1553 11.998C19.1553 14.3271 19.1462 14.6034 19.1044 15.5234C19.0655 16.3744 18.9233 16.8362 18.8039 17.1434C18.6457 17.5507 18.4562 17.8407 18.1508 18.146C17.8453 18.4514 17.5553 18.6405 17.1479 18.7987C16.8406 18.9187 16.3784 19.0605 15.5275 19.0994C14.6075 19.1413 14.3311 19.1504 12.0009 19.1504C9.67058 19.1504 9.3944 19.1413 8.4744 19.0994C7.62349 19.0602 7.16168 18.918 6.85386 18.7985C6.44659 18.6404 6.15568 18.4513 5.85022 18.1458C5.54477 17.8404 5.35568 17.5502 5.19713 17.1427C5.07768 16.8354 4.93531 16.3736 4.89659 15.5227C4.85477 14.6027 4.8464 14.3264 4.8464 11.9958C4.8464 9.66527 4.85477 9.39036 4.89659 8.47036C4.93549 7.61945 5.07768 7.15763 5.19713 6.84999C5.35531 6.44272 5.54477 6.15181 5.85022 5.84636C6.15568 5.5409 6.44659 5.35181 6.85386 5.19327C7.16149 5.07327 7.62349 4.93145 8.4744 4.89236C9.27949 4.85599 9.59149 4.84508 11.218 4.84327V4.84545ZM16.6595 6.29454C16.0813 6.29454 15.6122 6.76308 15.6122 7.34145C15.6122 7.91963 16.0813 8.38872 16.6595 8.38872C17.2377 8.38872 17.7068 7.91963 17.7068 7.34145C17.7068 6.76327 17.2377 6.29417 16.6595 6.29417V6.29454ZM12.0009 7.51817C9.52586 7.51817 7.51913 9.5249 7.51913 12C7.51913 14.4751 9.52586 16.4809 12.0009 16.4809C14.476 16.4809 16.482 14.4751 16.482 12C16.482 9.5249 14.476 7.51817 12.0009 7.51817ZM12.0009 9.0909C13.6075 9.0909 14.91 10.3933 14.91 12C14.91 13.6065 13.6075 14.9091 12.0009 14.9091C10.3942 14.9091 9.09186 13.6065 9.09186 12C9.09186 10.3933 10.3942 9.0909 12.0009 9.0909Z" fill="white"/>
<defs>
<radialGradient id="paint0_radial_105_862" cx="0" cy="0" r="1" gradientUnits="userSpaceOnUse" gradientTransform="translate(6.46175 25.6365) rotate(-90) scale(23.4234 21.7915)">
<stop stop-color="#FFDD55"/>
<stop offset="0.1" stop-color="#FFDD55"/>
<stop offset="0.5" stop-color="#FF543E"/>
<stop offset="1" stop-color="#C837AB"/>
</radialGradient>
<radialGradient id="paint1_radial_105_862" cx="0" cy="0" r="1" gradientUnits="userSpaceOnUse" gradientTransform="translate(-3.77783 1.8844) rotate(78.6776) scale(10.4705 43.1706)">
<stop stop-color="#3771C8"/>
<stop offset="0.128" stop-color="#3771C8"/>
<stop offset="1" stop-color="#6600FF" stop-opacity="0"/>
</radialGradient>
</defs>
</svg>
