<svg width="34" height="34" viewBox="0 0 34 34" fill="none" xmlns="http://www.w3.org/2000/svg">
<g id="material-symbols:link" clip-path="url(#clip0_105_851)">
<path id="Vector" d="M19.799 21.2132L16.9706 24.0416C15.9925 25.0198 14.8139 25.5086 13.4351 25.5082C12.0562 25.5077 10.8777 25.0189 9.89955 24.0416C8.92138 23.0644 8.43254 21.8859 8.43301 20.5061C8.43348 19.1263 8.92233 17.9478 9.89955 16.9706L12.728 14.1421L14.1422 15.5564L11.3138 18.3848C10.7245 18.974 10.4299 19.6811 10.4299 20.5061C10.4299 21.3311 10.7245 22.0382 11.3138 22.6274C11.903 23.2167 12.6101 23.5113 13.4351 23.5113C14.26 23.5113 14.9671 23.2167 15.5564 22.6274L18.3848 19.799L19.799 21.2132ZM14.8493 20.5061L13.4351 19.0919L19.0919 13.435L20.5061 14.8492L14.8493 20.5061ZM21.2133 19.799L19.799 18.3848L22.6275 15.5564C23.2167 14.9671 23.5114 14.26 23.5114 13.435C23.5114 12.6101 23.2167 11.903 22.6275 11.3137C22.0382 10.7245 21.3311 10.4298 20.5061 10.4298C19.6812 10.4298 18.9741 10.7245 18.3848 11.3137L15.5564 14.1421L14.1422 12.7279L16.9706 9.8995C17.9488 8.92134 19.1275 8.43226 20.5069 8.43226C21.8862 8.43225 23.0645 8.92134 24.0417 9.8995C25.0189 10.8777 25.508 12.0564 25.5089 13.4357C25.5099 14.8151 25.0208 15.9933 24.0417 16.9706L21.2133 19.799Z" fill="black"/>
</g>
<defs>
<clipPath id="clip0_105_851">
<rect width="24" height="24" fill="white" transform="translate(0 16.9706) rotate(-45)"/>
</clipPath>
</defs>
</svg>
