<svg width="24" height="24" viewBox="0 0 24 24" fill="none" xmlns="http://www.w3.org/2000/svg">
<g clip-path="url(#clip0_105_866)">
<path d="M0.0556641 23.9977L1.7441 17.8388C0.703477 16.0322 0.153633 13.9903 0.153633 11.8894C0.153633 5.33157 5.4941 -0.00280762 12.0458 -0.00280762C15.2268 -0.00280762 18.2113 1.23422 20.4627 3.48563C22.7075 5.73047 23.9446 8.72157 23.9446 11.8959C23.9446 18.4538 18.6041 23.7881 12.0524 23.7881H12.0458C10.056 23.7881 8.09941 23.2908 6.36504 22.3416L0.0556641 23.9977ZM6.65285 20.1952L7.01285 20.4113C8.53113 21.3145 10.2721 21.7856 12.0458 21.7922H12.0524C17.5044 21.7922 21.935 17.3611 21.935 11.9095C21.935 9.26532 20.9075 6.78469 19.0424 4.91954C17.1772 3.05438 14.6966 2.02032 12.0524 2.02032C6.60035 2.02032 2.16316 6.45141 2.16316 11.903C2.16316 13.7681 2.68676 15.5878 3.67488 17.1652L3.91066 17.5383L2.90941 21.1838L6.65285 20.1952Z" fill="white"/>
<path d="M0.467773 23.5852L2.09762 17.6358C1.0898 15.8949 0.566211 13.9181 0.566211 11.8959C0.566211 5.56688 5.71684 0.41626 12.0459 0.41626C15.1153 0.41626 18.0018 1.61392 20.1679 3.78048C22.3345 5.9536 23.5322 8.83313 23.5256 11.9025C23.5256 18.2316 18.375 23.3822 12.0459 23.3822H12.0393C10.1151 23.3822 8.23027 22.898 6.55496 21.9881L0.467773 23.5852Z" fill="url(#paint0_linear_105_866)"/>
<path d="M0.0556641 23.9977L1.7441 17.8388C0.703477 16.0322 0.153633 13.9903 0.153633 11.8894C0.153633 5.33157 5.4941 -0.00280762 12.0458 -0.00280762C15.2268 -0.00280762 18.2113 1.23422 20.4627 3.48563C22.7075 5.73047 23.9446 8.72157 23.9446 11.8959C23.9446 18.4538 18.6041 23.7881 12.0524 23.7881H12.0458C10.056 23.7881 8.09941 23.2908 6.36504 22.3416L0.0556641 23.9977ZM6.65285 20.1952L7.01285 20.4113C8.53113 21.3145 10.2721 21.7856 12.0458 21.7922H12.0524C17.5044 21.7922 21.935 17.3611 21.935 11.9095C21.935 9.26532 20.9075 6.78469 19.0424 4.91954C17.1772 3.05438 14.6966 2.02032 12.0524 2.02032C6.60035 2.02032 2.16316 6.45141 2.16316 11.903C2.16316 13.7681 2.68676 15.5878 3.67488 17.1652L3.91066 17.5383L2.90941 21.1838L6.65285 20.1952Z" fill="url(#paint1_linear_105_866)"/>
<path d="M9.07426 6.92203C8.8516 6.42469 8.61629 6.41812 8.40676 6.41156C8.2366 6.405 8.03363 6.405 7.83723 6.405C7.64082 6.405 7.3202 6.47719 7.04551 6.77812C6.77082 7.0725 6.00488 7.7925 6.00488 9.25875C6.00488 10.7184 7.07176 12.1317 7.21566 12.3347C7.36613 12.5311 9.27066 15.6267 12.2946 16.8178C14.808 17.8059 15.3185 17.6095 15.8613 17.5641C16.4046 17.5116 17.6219 16.8441 17.8704 16.1503C18.1193 15.4566 18.1193 14.8608 18.0405 14.7366C17.9683 14.6123 17.7658 14.5402 17.471 14.3897C17.1766 14.2392 15.7104 13.5192 15.4422 13.4212C15.1675 13.3233 14.9711 13.2708 14.7747 13.5717C14.5783 13.8661 14.0088 14.5402 13.8321 14.7366C13.6619 14.933 13.4852 14.9592 13.1908 14.8087C12.8964 14.6583 11.9341 14.3442 10.8021 13.3359C9.91848 12.5508 9.32316 11.5753 9.14645 11.2809C8.97629 10.9866 9.12676 10.823 9.27723 10.6725C9.40801 10.5417 9.5716 10.3256 9.72207 10.1489C9.87254 9.97219 9.91848 9.85453 10.0164 9.65156C10.1144 9.45515 10.0689 9.27844 9.9902 9.12797C9.91848 8.97703 9.34238 7.51125 9.07426 6.92203Z" fill="white"/>
</g>
<defs>
<linearGradient id="paint0_linear_105_866" x1="11.9967" y1="23.5853" x2="11.9967" y2="0.416536" gradientUnits="userSpaceOnUse">
<stop stop-color="#20B038"/>
<stop offset="1" stop-color="#60D66A"/>
</linearGradient>
<linearGradient id="paint1_linear_105_866" x1="11.9999" y1="23.9977" x2="11.9999" y2="-0.00233841" gradientUnits="userSpaceOnUse">
<stop stop-color="#F9F9F9"/>
<stop offset="1" stop-color="white"/>
</linearGradient>
<clipPath id="clip0_105_866">
<rect width="24" height="24" fill="white"/>
</clipPath>
</defs>
</svg>
