<svg width="88" height="88" viewBox="0 0 88 88" fill="none" xmlns="http://www.w3.org/2000/svg">
<circle cx="44" cy="44" r="43" stroke="#0E1AFB" stroke-width="2"/>
<path d="M44 9C53.2826 9 62.185 12.6875 68.7487 19.2513C75.3125 25.815 79 34.7174 79 44C79 53.2826 75.3125 62.185 68.7487 68.7487C62.185 75.3125 53.2826 79 44 79C34.7174 79 25.815 75.3125 19.2513 68.7487C12.6875 62.185 9 53.2826 9 44C9 34.7174 12.6875 25.815 19.2513 19.2513C25.815 12.6875 34.7174 9 44 9ZM39.64 50.905L31.865 43.125C31.5863 42.8463 31.2554 42.6252 30.8912 42.4743C30.527 42.3235 30.1367 42.2458 29.7425 42.2458C29.3483 42.2458 28.958 42.3235 28.5938 42.4743C28.2296 42.6252 27.8987 42.8463 27.62 43.125C27.0571 43.6879 26.7408 44.4514 26.7408 45.2475C26.7408 46.0436 27.0571 46.8071 27.62 47.37L37.52 57.27C37.7979 57.5501 38.1286 57.7725 38.4929 57.9242C38.8572 58.076 39.2479 58.1541 39.6425 58.1541C40.0371 58.1541 40.4278 58.076 40.7921 57.9242C41.1564 57.7725 41.4871 57.5501 41.765 57.27L62.265 36.765C62.5475 36.4874 62.7722 36.1567 62.9261 35.7918C63.0801 35.427 63.1604 35.0352 63.1622 34.6392C63.164 34.2432 63.0875 33.8508 62.9369 33.4845C62.7863 33.1182 62.5647 32.7854 62.2848 32.5052C62.005 32.225 61.6724 32.003 61.3063 31.852C60.9402 31.701 60.5478 31.6239 60.1518 31.6253C59.7558 31.6267 59.364 31.7064 58.999 31.86C58.6339 32.0136 58.3029 32.2379 58.025 32.52L39.64 50.905Z" fill="#0E1AFB"/>
</svg>
